<svg id="Layer_1" xmlns="http://www.w3.org/2000/svg" viewBox="0 0 760 1571.7" fill="#000000"><path class="st0" d="M100.7 97h5.3c1 0 1.8-.8 1.8-1.8s-.8-1.8-1.8-1.8h-5.5l6.9-6.2c.7-.6.8-1.8.1-2.5-.6-.7-1.8-.8-2.5-.1l-9.7 8.8H90.6l6.9-6.2c.7-.6.8-1.8.1-2.5-.6-.7-1.8-.8-2.5-.1L86 92.9c-.4-2.6-1.5-5-3.1-6.9l5.7-5.7c.7-.7.7-1.8 0-2.5s-1.8-.7-2.5 0l-5.7 5.7c-2-1.5-4.3-2.6-6.9-3l8.1-9c.6-.7.6-1.8-.1-2.5-.7-.6-1.8-.6-2.5.1l-6.2 6.8v-4.7l8.8-9.7c.6-.7.6-1.8-.1-2.5-.7-.6-1.8-.6-2.5.1l-6.2 6.8v-5.7c0-1-.8-1.8-1.8-1.8s-1.8.8-1.8 1.8v5.6L63.1 59c-.6-.7-1.8-.8-2.5-.1-.7.6-.8 1.8-.1 2.5l8.7 9.6v5l-6.1-6.8c-.6-.7-1.8-.8-2.5-.1-.7.6-.8 1.8-.1 2.5l8.1 9c-2.6.4-4.9 1.5-6.9 3l-5.8-5.8c-.7-.7-1.8-.7-2.5 0s-.7 1.8 0 2.5l5.8 5.8c-1.4 1.7-2.3 3.8-2.8 6l-8.2-7.4c-.7-.6-1.8-.6-2.5.1-.6.7-.6 1.8.1 2.5l6.9 6.2h-4.6-.1l-9.7-8.8c-.7-.6-1.8-.6-2.5.1-.6.7-.6 1.8.1 2.5l6.9 6.2H36c-1 0-1.8.8-1.8 1.8s.8 1.8 1.8 1.8h6.6l-6.7 6c-.7.6-.8 1.8-.1 2.5.3.4.8.6 1.3.6.4 0 .8-.2 1.2-.5l9.6-8.6h4.7l-6.7 6c-.7.6-.8 1.8-.1 2.5.3.4.8.6 1.3.6.4 0 .8-.2 1.2-.5l8.2-7.4c.5 2.3 1.5 4.4 2.9 6.1l-5.8 5.8c-.7.7-.7 1.8 0 2.5.3.3.8.5 1.2.5.4 0 .9-.2 1.2-.5l5.8-5.8c1.9 1.5 4.1 2.6 6.6 3l-7.9 8.7c-.6.7-.6 1.8.1 2.5.3.3.8.5 1.2.5.5 0 1-.2 1.3-.6l6.1-6.8v4.7l-8.7 9.6c-.6.7-.6 1.8.1 2.5.3.3.8.5 1.2.5.5 0 1-.2 1.3-.6l6.1-6.8v5.9c0 1 .8 1.8 1.8 1.8s1.8-.8 1.8-1.8v-6l6.2 6.8c.3.4.8.6 1.3.6.4 0 .8-.1 1.2-.5.7-.6.8-1.8.1-2.5l-8.8-9.7V114l6.2 6.8c.3.4.8.6 1.3.6.4 0 .8-.1 1.2-.5.7-.6.8-1.8.1-2.5l-7.9-8.7c2.5-.4 4.7-1.5 6.6-2.9l5.7 5.7c.3.3.8.5 1.2.5.4 0 .9-.2 1.2-.5.7-.7.7-1.8 0-2.5l-5.7-5.7c1.6-2 2.7-4.4 3.1-7.1l9.1 8.2c.3.3.8.5 1.2.5.5 0 1-.2 1.3-.6.6-.7.6-1.8-.1-2.5l-6.7-6h4.7l9.6 8.6c.3.3.8.5 1.2.5.5 0 1-.2 1.3-.6.6-.7.6-1.8-.1-2.5l-6.6-5.8zm-18.2-3.5h-7.1l5-5c1.1 1.5 1.8 3.2 2.1 5zm-9.6-2.4V84c1.9.3 3.6 1 5 2l-5 5.1zM69.4 84v7l-4.9-4.9c1.4-1 3.1-1.8 4.9-2.1zm-2.5 9.5H60c.3-1.8 1-3.5 2-4.9l4.9 4.9zM60 97h6.9l-4.9 5c-1-1.5-1.7-3.1-2-5zm9.4 2.5v7c-1.8-.3-3.5-1-4.9-2.1l4.9-4.9zm3.5 7.1v-7.1l5 5c-1.4 1.1-3.1 1.8-5 2.1zm2.5-9.6h7.1c-.3 1.9-1 3.6-2.1 5l-5-5z"/><path class="st0" d="M46.6 78.2c4 0 7.2-3.2 7.2-7.2s-3.2-7.2-7.2-7.2-7.2 3.2-7.2 7.2c.1 4 3.3 7.2 7.2 7.2zm0-10.8c2 0 3.7 1.6 3.7 3.7s-1.6 3.7-3.7 3.7S43 73.1 43 71s1.6-3.6 3.6-3.6zM95.9 78.2c4 0 7.2-3.2 7.2-7.2s-3.2-7.2-7.2-7.2-7.2 3.2-7.2 7.2 3.2 7.2 7.2 7.2zm0-10.8c2 0 3.7 1.6 3.7 3.7s-1.6 3.7-3.7 3.7c-2 0-3.7-1.6-3.7-3.7s1.7-3.7 3.7-3.7zM46.6 112.4c-4 0-7.2 3.2-7.2 7.2 0 3.9 3.2 7.2 7.2 7.2s7.2-3.2 7.2-7.2-3.2-7.2-7.2-7.2zm0 10.8c-2 0-3.7-1.6-3.7-3.7 0-2 1.6-3.7 3.7-3.7s3.7 1.6 3.7 3.7c0 2-1.6 3.7-3.7 3.7zM95.9 112.4c-4 0-7.2 3.2-7.2 7.2 0 3.9 3.2 7.2 7.2 7.2s7.2-3.2 7.2-7.2-3.3-7.2-7.2-7.2zm0 10.8c-2 0-3.7-1.6-3.7-3.7 0-2 1.6-3.7 3.7-3.7 2 0 3.7 1.6 3.7 3.7 0 2-1.7 3.7-3.7 3.7z"/></svg>