<svg xmlns="http://www.w3.org/2000/svg" viewBox="0 0 760 1571.7" fill="#000000"><path d="M108.1 558.9c-4.8 0-7.3-2.4-10-5.5 2.6-3 5.2-5.5 10-5.5 1 0 1.8-.8 1.8-1.8s-.8-1.8-1.8-1.8c-6 0-9.4 3.1-12.3 6.3-2.8-3.2-6.3-6.3-12.3-6.3-.5 0-1 0-1.5.1l7.2-7.2 6.6 6.6c.3.3.8.5 1.2.5.4 0 .9-.2 1.2-.5.7-.7.7-1.8 0-2.5l-6.6-6.6 7.3-7.3c.7-.7.7-1.8 0-2.5s-1.8-.7-2.5 0l-7.3 7.3-6.6-6.6c-.7-.7-1.8-.7-2.5 0s-.7 1.8 0 2.5l6.6 6.6-6.6 6.6v-.3c0-6-3.1-9.4-6.3-12.3 3.2-2.8 6.3-6.3 6.3-12.3 0-1-.8-1.8-1.8-1.8s-1.8.8-1.8 1.8c0 4.8-2.4 7.3-5.5 10-3-2.6-5.5-5.2-5.5-10 0-1-.8-1.8-1.8-1.8s-1.8.8-1.8 1.8c0 6 3.1 9.4 6.3 12.3-3.2 2.8-6.3 6.3-6.3 12.3v.5l-6.8-6.8 6.6-6.6c.7-.7.7-1.8 0-2.5s-1.8-.7-2.5 0l-6.6 6.6-7.3-7.3c-.7-.7-1.8-.7-2.5 0s-.7 1.8 0 2.5l7.3 7.3-6.6 6.6c-.7.7-.7 1.8 0 2.5.3.3.8.5 1.2.5.4 0 .9-.2 1.2-.5l6.6-6.6 7.2 7.2c-.4 0-.8-.1-1.3-.1-6 0-9.5 3.1-12.3 6.3-2.8-3.2-6.3-6.3-12.3-6.3-1 0-1.8.8-1.8 1.8s.8 1.8 1.8 1.8c4.8 0 7.3 2.4 10 5.5-2.6 3-5.2 5.5-10 5.5-1 0-1.8.8-1.8 1.8s.8 1.8 1.8 1.8c6 0 9.4-3.1 12.3-6.3 2.8 3.2 6.3 6.3 12.3 6.3h.3l-6.2 6.2-6.6-6.6c-.7-.7-1.8-.7-2.5 0s-.7 1.8 0 2.5l6.6 6.6-7.3 7.3c-.7.7-.7 1.8 0 2.5.3.3.8.5 1.2.5.4 0 .9-.2 1.2-.5l7.3-7.3 6.6 6.6c.3.3.8.5 1.2.5.4 0 .9-.2 1.2-.5.7-.7.7-1.8 0-2.5l-6.6-6.6 6.9-6.9c0 .5-.1 1-.1 1.5 0 6 3.1 9.5 6.3 12.3-3.2 2.8-6.3 6.3-6.3 12.3 0 1 .8 1.8 1.8 1.8s1.8-.8 1.8-1.8c0-4.8 2.4-7.3 5.5-10 3 2.6 5.5 5.2 5.5 10 0 1 .8 1.8 1.8 1.8s1.8-.8 1.8-1.8c0-6-3.1-9.4-6.3-12.3 3.2-2.8 6.3-6.3 6.3-12.3 0-.4 0-.9-.1-1.3l6.6 6.6-6.6 6.6c-.7.7-.7 1.8 0 2.5.3.3.8.5 1.2.5.4 0 .9-.2 1.2-.5l6.6-6.6 7.3 7.3c.3.3.8.5 1.2.5.4 0 .9-.2 1.2-.5.7-.7.7-1.8 0-2.5l-7.3-7.3 6.6-6.6c.7-.7.7-1.8 0-2.5s-1.8-.7-2.5 0l-6.6 6.6-6.2-6.2h.5c6 0 9.4-3.1 12.3-6.3 2.8 3.2 6.3 6.3 12.3 6.3 1 0 1.8-.8 1.8-1.8s-.1-1.7-1.1-1.7zm-42.3-17.8c0-4.8 2.4-7.3 5.5-10 3 2.6 5.5 5.2 5.5 10 0 1.9-.4 3.5-1.1 4.9l-4.5 4.5-4.1-4.1c-.8-1.5-1.3-3.2-1.3-5.3zM59 558.9c-4.8 0-7.3-2.4-10-5.5 2.6-3 5.2-5.5 10-5.5 2.6 0 4.5.7 6.2 1.9 1 1.3 2.1 2.4 3.2 3.4l-4.5 4.5c-1.4.8-3 1.2-4.9 1.2zm12.3 16.8c-3-2.6-5.5-5.2-5.5-10 0-2.6.7-4.6 1.9-6.2 1.3-1 2.5-2.2 3.6-3.4 1.1 1.2 2.2 2.4 3.6 3.4 1.2 1.7 1.9 3.6 1.9 6.2-.1 4.8-2.5 7.3-5.5 10zm12.3-16.8c-2.1 0-3.8-.5-5.3-1.3l-4.2-4.2c1.2-1 2.3-2.2 3.3-3.5 1.7-1.2 3.6-1.9 6.2-1.9 4.8 0 7.3 2.4 10 5.5-2.7 2.9-5.3 5.4-10 5.4z" fill="#4e4e4e"/></svg>